<?xml version="1.0" encoding="UTF-8"?>
<svg id="logoImage" data-name="Layer 1" xmlns="http://www.w3.org/2000/svg" width="120" height="100" version="1.1" viewBox="0 0 120 100">
  <defs>
    <style>
      .cls-1 {
        fill: #512888;
        stroke-width: 0px;
      }
    </style>
  </defs>
  <path class="cls-1" d="M109.9,32.5c-1.7,5.3-4.4,10.2-7.9,14.8-1.1,0-2.2-.3-3.3-.5-.9,1.9-2.1,3.9-3.9,5.4-.1,0-.4,0-.5,0-.4-.6.2-1.3.2-2,.5-2.2-.1-4.4-1.5-6-1-.9-2.1-1.6-3.3-1.9-5.2-1-9.9,1.7-12.8,6-8.9-2.8-19.7-5.1-29.6-3.9-13.6,1.9-27.2,6-35.6,18.3-.7,1-1.3,2.1-1.8,3.1V19.3c3.7-1.5,7.6-2.6,11.5-3.6,4.1,5.2,9.7,8.6,15.9,9.4,4.6.6,9.2-1.4,11.3-5.6.9-1.9,1.5-4.2,1-6.5,6.3-.5,13.1-.3,19.2.6,3.6.5,7,1.4,10.4,2.5,1.7.6,3.5,1.3,5.1,2.1.2,0,.4.2.3.4,0,.2-.1.4-.3.4-2.2,0-4.3-.2-6.4-.3-.3,0-.5,0-.6.3,0,.1.2.2.3.3,3.3.5,8.4,1.3,15.1,3.3,5.8,1.7,11.3,4.5,16.3,8.2.5.4,1,.9.7,1.6ZM35.7,22.8c2.7.7,6.2.5,8.5-1,2.6-1.7,4-5.4,3.6-8.5h-25.4c3.4,4.6,7.9,8.4,13.3,9.5ZM45.4,83.2c-4-5.1-4.8-13.1-1.8-18.9,2.9-6.7,9.9-10,16.7-10.9,4.8-.7,9.8-.2,14.5.7.3-2.4,1.1-4.3,1.1-4.3-2.2-.5-4.4-1.2-6.6-1.6-6.5-1.3-13.3-2.1-20.1-1.4-6.6.7-12.8,2.4-18.4,5.6-4.1,2.2-8.3,6-9.9,10.4-.7,1.9-1.4,3.9-1.4,6.2,0,6.6,4.5,13,10.6,15.8,3.8,1.9,8.4,2.9,12.9,2,1.6-.3,3.1-.7,4.5-1.4-.7-.7-1.3-1.4-2-2.2ZM89.8,63.5c.8-1.9,1.6-3.9,1.7-6.1,0-.3-.3-.3-.6-.3-1.8,2.5-4.2,4.6-7.1,5.5-1.3.4-3.1.6-4.4.3-2.8-.8-4.6-3.7-5-6.4-1-.3-2.1-.5-3.2-.6-6.8-.7-13.6,1.1-17.5,6.9-2.5,3.9-2.1,9.6.1,13.8.7,1.3,2,2.8,3.3,3.5.6-1.7,1.8-3.3,3.3-4.5,1.8-1.2,3.7-1.9,6-1.9,3.9-.1,7.6,2.2,9.3,5.7,5-2.3,9.9-5.5,13.9-9.8,1-1.1,2-2.2,2.8-3.4-.8-1-1.8-1.9-2.7-2.7Z"/>
  <path class="cls-1" d="M52.2,81.2c.9,0,1.8.7,1.8,1.7s-.8,1.7-1.8,1.7-1.8-.7-1.8-1.7.8-1.7,1.8-1.7ZM52.2,84.3c.7,0,1.3-.6,1.3-1.4s-.6-1.3-1.3-1.3-1.3.6-1.3,1.3.6,1.4,1.3,1.4ZM51.5,82h.7c.5,0,.8.2.8.6s-.2.5-.5.5l.5.8h-.4l-.5-.8h-.2v.8h-.4v-1.9ZM51.9,82.8h.3c.2,0,.4,0,.4-.3s-.2-.2-.4-.2h-.3v.5Z"/>
</svg>